<?xml version="1.0" encoding="UTF-8" standalone="no"?>
<!-- Created with Inkscape (http://www.inkscape.org/) -->

<svg
   xmlns:osb="http://www.openswatchbook.org/uri/2009/osb"
   xmlns:dc="http://purl.org/dc/elements/1.1/"
   xmlns:cc="http://creativecommons.org/ns#"
   xmlns:rdf="http://www.w3.org/1999/02/22-rdf-syntax-ns#"
   xmlns:svg="http://www.w3.org/2000/svg"
   xmlns="http://www.w3.org/2000/svg"
   xmlns:sodipodi="http://sodipodi.sourceforge.net/DTD/sodipodi-0.dtd"
   xmlns:inkscape="http://www.inkscape.org/namespaces/inkscape"
   width="256.88977"
   height="531.49603"
   id="svg2"
   version="1.1"
   inkscape:version="0.48.5 r10040"
   sodipodi:docname="activity_base.svg">
  <defs
     id="defs4">
    <inkscape:path-effect
       effect="spiro"
       id="path-effect3225"
       is_visible="true" />
    <linearGradient
       id="linearGradient7310"
       osb:paint="solid">
      <stop
         style="stop-color:#ffffff;stop-opacity:1;"
         offset="0"
         id="stop7312" />
    </linearGradient>
    <inkscape:path-effect
       effect="spiro"
       id="path-effect6141"
       is_visible="true" />
    <inkscape:path-effect
       effect="spiro"
       id="path-effect6106"
       is_visible="true" />
  </defs>
  <sodipodi:namedview
     id="base"
     pagecolor="#ffffff"
     bordercolor="#666666"
     borderopacity="1.0"
     inkscape:pageopacity="0.0"
     inkscape:pageshadow="2"
     inkscape:zoom="1.4"
     inkscape:cx="48.013602"
     inkscape:cy="468.47069"
     inkscape:document-units="px"
     inkscape:current-layer="layer1"
     showgrid="false"
     units="mm"
     width="1mm"
     inkscape:window-width="1366"
     inkscape:window-height="709"
     inkscape:window-x="-8"
     inkscape:window-y="-8"
     inkscape:window-maximized="1" />
  <metadata
     id="metadata7">
    <rdf:RDF>
      <cc:Work
         rdf:about="">
        <dc:format>image/svg+xml</dc:format>
        <dc:type
           rdf:resource="http://purl.org/dc/dcmitype/StillImage" />
        <dc:title />
      </cc:Work>
    </rdf:RDF>
  </metadata>
  <g
     inkscape:label="Layer 1"
     inkscape:groupmode="layer"
     id="layer1"
     transform="translate(0,-520.86619)">
    <rect
       style="fill:#f2f2f2;fill-opacity:1;stroke:#000000;stroke-width:1.00961101;stroke-miterlimit:4;stroke-opacity:1;stroke-dasharray:none"
       id="rect2987"
       width="255.88016"
       height="502.13998"
       x="0.50480551"
       y="521.37097" />
    <rect
       style="fill:#4d4d4d;fill-opacity:1;stroke:#000000;stroke-width:0.96194762;stroke-miterlimit:4;stroke-opacity:1;stroke-dasharray:none"
       id="rect3757"
       width="255.92781"
       height="41.557739"
       x="0.31748584"
       y="520.78796" />
    <path
       style="fill:#ffffff;stroke:#000000;stroke-width:1px;stroke-linecap:butt;stroke-linejoin:miter;stroke-opacity:1"
       d="M 28.248376,524.78069 7.5402494,537.40759 29.258529,555.59034 17.641774,537.40759 z"
       id="path3759"
       inkscape:connector-curvature="0" />
    <text
       xml:space="preserve"
       style="font-size:24px;font-style:normal;font-weight:normal;line-height:125%;letter-spacing:0px;word-spacing:0px;fill:#ffffff;fill-opacity:1;stroke:#000000;stroke-width:0.75;stroke-miterlimit:4;stroke-opacity:1;stroke-dasharray:none;font-family:Sans"
       x="35.319443"
       y="547.42249"
       id="text3761"
       sodipodi:linespacing="125%"><tspan
         sodipodi:role="line"
         id="tspan3763"
         x="35.319443"
         y="547.42249">Activity Name</tspan></text>
    <g
       id="g8179">
      <path
         transform="translate(2.6090705,524.83584)"
         d="m 242.43662,6.4070826 c 0,1.2552566 -1.01759,2.2728431 -2.27285,2.2728431 -1.25525,0 -2.27284,-1.0175865 -2.27284,-2.2728431 0,-1.2552566 1.01759,-2.2728432 2.27284,-2.2728432 1.25526,0 2.27285,1.0175866 2.27285,2.2728432 z"
         sodipodi:ry="2.2728431"
         sodipodi:rx="2.2728431"
         sodipodi:cy="6.4070826"
         sodipodi:cx="240.16377"
         id="path3765"
         style="fill:#ffffff;fill-opacity:1;stroke:#000000;stroke-width:1;stroke-miterlimit:4;stroke-opacity:1;stroke-dasharray:none"
         sodipodi:type="arc" />
      <path
         transform="translate(2.6090705,534.83584)"
         d="m 242.43662,6.4070826 c 0,1.2552566 -1.01759,2.2728431 -2.27285,2.2728431 -1.25525,0 -2.27284,-1.0175865 -2.27284,-2.2728431 0,-1.2552566 1.01759,-2.2728432 2.27284,-2.2728432 1.25526,0 2.27285,1.0175866 2.27285,2.2728432 z"
         sodipodi:ry="2.2728431"
         sodipodi:rx="2.2728431"
         sodipodi:cy="6.4070826"
         sodipodi:cx="240.16377"
         id="path3765-1"
         style="fill:#ffffff;fill-opacity:1;stroke:#000000;stroke-width:1;stroke-miterlimit:4;stroke-opacity:1;stroke-dasharray:none"
         sodipodi:type="arc" />
      <path
         transform="translate(2.6090705,544.83584)"
         d="m 242.43662,6.4070826 c 0,1.2552566 -1.01759,2.2728431 -2.27285,2.2728431 -1.25525,0 -2.27284,-1.0175865 -2.27284,-2.2728431 0,-1.2552566 1.01759,-2.2728432 2.27284,-2.2728432 1.25526,0 2.27285,1.0175866 2.27285,2.2728432 z"
         sodipodi:ry="2.2728431"
         sodipodi:rx="2.2728431"
         sodipodi:cy="6.4070826"
         sodipodi:cx="240.16377"
         id="path3765-7"
         style="fill:#ffffff;fill-opacity:1;stroke:#000000;stroke-width:1;stroke-miterlimit:4;stroke-opacity:1;stroke-dasharray:none"
         sodipodi:type="arc" />
    </g>
    <g
       id="g3024"
       transform="translate(8.0812204,-23.043165)">
      <path
         transform="matrix(0.66519721,0,0,0.66519721,71.360598,703.46405)"
         d="m 242.43661,460.72318 c 0,16.17886 -13.11556,29.29442 -29.29443,29.29442 -16.17886,0 -29.29442,-13.11556 -29.29442,-29.29442 0,-16.17887 13.11556,-29.29443 29.29442,-29.29443 16.17887,0 29.29443,13.11556 29.29443,29.29443 z"
         sodipodi:ry="29.294424"
         sodipodi:rx="29.294424"
         sodipodi:cy="460.72318"
         sodipodi:cx="213.14218"
         id="path2998"
         style="fill:#0000ff;fill-opacity:1;stroke:#000000;stroke-width:1;stroke-miterlimit:4;stroke-opacity:1;stroke-dasharray:none"
         sodipodi:type="arc" />
      <path
         inkscape:connector-curvature="0"
         id="rect3000"
         d="m 209.30158,995.47559 c 0,3.7375 0,7.47501 0,11.21251 -3.50896,0 -7.0179,0 -10.52686,0 0,2.1762 0,4.3524 0,6.5285 3.50896,0 7.0179,0 10.52686,0 0,3.8826 0,7.7652 0,11.6478 2.52481,0 5.04963,0 7.57444,0 0,-3.8826 0,-7.7652 0,-11.6478 3.20353,0 6.40706,0 9.61059,0 0,-2.1761 0,-4.3523 0,-6.5285 -3.20353,0 -6.40706,0 -9.61059,0 0,-3.7375 0,-7.47501 0,-11.21251 -2.52481,0 -5.04963,0 -7.57444,0 z"
         style="fill:#ffffff;fill-opacity:1;stroke:#000000;stroke-width:0.65736604;stroke-miterlimit:4;stroke-opacity:1;stroke-dasharray:none" />
    </g>
    <rect
       style="fill:#666666;fill-opacity:1;stroke:#000000;stroke-width:0.85635811;stroke-miterlimit:4;stroke-opacity:1;stroke-dasharray:none"
       id="rect6098"
       width="256.03342"
       height="27.490099"
       x="0.42817906"
       y="1024.444" />
    <path
       style="fill:none;stroke:#ffffff;stroke-width:1px;stroke-linecap:butt;stroke-linejoin:miter;stroke-opacity:1"
       d="m 39.2355,1033.7756 15,0 c 1.318801,-0.015 2.635664,0.5164 3.573739,1.4435 0.938076,0.9271 1.485468,2.2376 1.485527,3.5565 5.8e-5,1.2943 -0.526159,2.581 -1.433162,3.5044 -0.907003,0.9234 -2.184111,1.4725 -3.478224,1.4956 l -6.737166,0 m 0,-3 0,6 -5,-3 5,-3"
       id="path6139"
       inkscape:path-effect="#path-effect6141"
       inkscape:original-d="m 39.2355,1033.7756 15,0 c 0,0 -1.28975,-1.349 5.059266,5 6.349016,6.349 -4.911386,5 -4.911386,5 l -6.737166,0 m 0,-3 c 0,2.554 -0.188568,3.1035 0,6 l -5,-3 c 2.037317,-1.1762 2.731707,-1.6904 5,-3 z"
       inkscape:connector-curvature="0"
       sodipodi:nodetypes="ccscccccc" />
    <path
       id="rect6264"
       style="fill:none;stroke:#ffffff;stroke-width:0.60735315;stroke-miterlimit:4;stroke-opacity:1"
       d="m 205.95314,1032.7574 16.11364,0 0,11.2564 -16.11364,0 z m -2.19732,2.6605 16.11364,0 0,11.2564 -16.11364,0 z"
       inkscape:connector-curvature="0" />
    <path
       style="fill:none;stroke:#ffffff;stroke-width:0.88582677;stroke-miterlimit:4;stroke-opacity:1"
       d="m 119.28572,1036.6836 11.26845,-6.7857 11.26845,6.7857 0,9.6429 -22.5369,0 z"
       id="rect6269"
       inkscape:connector-curvature="0"
       sodipodi:nodetypes="cccccc" />
    <path
       style="fill:#ffffff;stroke:#000000;stroke-width:1px;stroke-linecap:butt;stroke-linejoin:miter;stroke-opacity:1"
       d="m 202.29482,542.037 6.9448,6.9448 11.14563,-19.3048 1.81724,3.14756 -12.43477,21.53766 -9.26772,-9.26771 1.79482,-3.05751"
       id="path3223"
       inkscape:path-effect="#path-effect3225"
       inkscape:original-d="m 202.29482,542.037 6.9448,6.9448 11.14563,-19.3048 1.81724,3.14756 -12.43477,21.53766 -9.26772,-9.26771 z"
       inkscape:connector-curvature="0" />
  </g>
</svg>
